{
  "accessors": [
    {
      "bufferView": 2,
      "componentType": 5126,
      "count": 1262,
      "max": [
        0.6535620093345642,
        0.3443489968776703,
        1.0
      ],
      "min": [
        -0.6535620093345642,
        -0.3443489968776703,
        -1.0
      ],
      "type": "VEC3"
    },
    {
      "bufferView": 2,
      "byteOffset": 15144,
      "componentType": 5126,
      "count": 1262,
      "max": [
        0.9999092221260071,
        0.9999546408653259,
        0.9995810985565186
      ],
      "min": [
        -0.9998593330383301,
        -0.9993937611579895,
        -0.9998229742050171
      ],
      "type": "VEC3"
    },
    {
      "bufferView": 3,
      "componentType": 5126,
      "count": 1262,
      "max": [
        0.9996253252029419,
        0.9994609355926514,
        0.9999510049819946,
        1.0
      ],
      "min": [
        -0.9966935515403748,
        -0.9973432421684265,
        -0.9997471570968628,
        1.0
      ],
      "type": "VEC4"
    },
    {
      "bufferView": 1,
      "componentType": 5126,
      "count": 1262,
      "max": [
        0.9973499774932861,
        1.0
      ],
      "min": [
        0.0,
        0.0
      ],
      "type": "VEC2"
    },
    {
      "bufferView": 0,
      "componentType": 5125,
      "count": 6336,
      "type": "SCALAR"
    }
  ],
  "asset": {
    "extras": {
      "author": "Mandy_Animates (https://sketchfab.com/Ani_Mandy_ation)",
      "license": "CC-BY-4.0 (http://creativecommons.org/licenses/by/4.0/)",
      "source": "https://sketchfab.com/3d-models/plastic-bag-dirty-3-1a4bbf8e4ee4421e9a029d399e5c9746",
      "title": "Plastic Bag Dirty 3"
    },
    "generator": "Sketchfab-12.65.0",
    "version": "2.0"
  },
  "bufferViews": [
    {
      "buffer": 0,
      "byteLength": 25344,
      "name": "floatBufferViews",
      "target": 34963
    },
    {
      "buffer": 0,
      "byteLength": 10096,
      "byteOffset": 25344,
      "byteStride": 8,
      "name": "floatBufferViews",
      "target": 34962
    },
    {
      "buffer": 0,
      "byteLength": 30288,
      "byteOffset": 35440,
      "byteStride": 12,
      "name": "floatBufferViews",
      "target": 34962
    },
    {
      "buffer": 0,
      "byteLength": 20192,
      "byteOffset": 65728,
      "byteStride": 16,
      "name": "floatBufferViews",
      "target": 34962
    }
  ],
  "buffers": [
    {
      "byteLength": 85920,
      "uri": "scene.bin"
    }
  ],
  "images": [
    {
      "uri": "textures/PlasticBag1_baseColor.jpeg"
    },
    {
      "uri": "textures/PlasticBag1_metallicRoughness.png"
    },
    {
      "uri": "textures/PlasticBag1_normal.png"
    }
  ],
  "materials": [
    {
      "doubleSided": true,
      "name": "PlasticBag1",
      "normalTexture": {
        "index": 2
      },
      "pbrMetallicRoughness": {
        "baseColorTexture": {
          "index": 0
        },
        "metallicRoughnessTexture": {
          "index": 1
        }
      }
    }
  ],
  "meshes": [
    {
      "name": "defaultMaterial",
      "primitives": [
        {
          "attributes": {
            "NORMAL": 1,
            "POSITION": 0,
            "TANGENT": 2,
            "TEXCOORD_0": 3
          },
          "indices": 4,
          "material": 0,
          "mode": 4
        }
      ]
    }
  ],
  "nodes": [
    {
      "children": [
        1
      ],
      "matrix": [
        1.0,
        0.0,
        0.0,
        0.0,
        0.0,
        2.220446049250313e-16,
        -1.0,
        0.0,
        0.0,
        1.0,
        2.220446049250313e-16,
        0.0,
        0.0,
        0.0,
        0.0,
        1.0
      ],
      "name": "Sketchfab_model"
    },
    {
      "children": [
        2
      ],
      "matrix": [
        1.0,
        0.0,
        0.0,
        0.0,
        0.0,
        -4.371139006309477e-08,
        0.999999999999999,
        0.0,
        0.0,
        -0.999999999999999,
        -4.371139006309477e-08,
        0.0,
        0.0,
        0.0,
        0.0,
        1.0
      ],
      "name": "Collada visual scene group"
    },
    {
      "children": [
        3
      ],
      "name": "PlasticBag3"
    },
    {
      "mesh": 0,
      "name": "defaultMaterial"
    }
  ],
  "samplers": [
    {
      "magFilter": 9729,
      "minFilter": 9987,
      "wrapS": 10497,
      "wrapT": 10497
    }
  ],
  "scene": 0,
  "scenes": [
    {
      "name": "Sketchfab_Scene",
      "nodes": [
        0
      ]
    }
  ],
  "textures": [
    {
      "sampler": 0,
      "source": 0
    },
    {
      "sampler": 0,
      "source": 1
    },
    {
      "sampler": 0,
      "source": 2
    }
  ]
}
