{
  "accessors": [
    {
      "bufferView": 2,
      "componentType": 5126,
      "count": 556,
      "max": [
        0.15584124624729156,
        0.1824234426021576,
        0.4982566237449646
      ],
      "min": [
        -0.1620468944311142,
        -0.18075059354305267,
        0.0004254337400197983
      ],
      "type": "VEC3"
    },
    {
      "bufferView": 2,
      "byteOffset": 6672,
      "componentType": 5126,
      "count": 556,
      "max": [
        0.9999114274978638,
        0.9998108744621277,
        0.9998015761375427
      ],
      "min": [
        -0.9997904300689697,
        -0.9995768666267395,
        -1.0
      ],
      "type": "VEC3"
    },
    {
      "bufferView": 3,
      "componentType": 5126,
      "count": 556,
      "max": [
        0.9997428059577942,
        0.9999731779098511,
        0.9960028529167175,
        1.0
      ],
      "min": [
        -0.9999527335166931,
        -0.9999996423721313,
        -0.9864739775657654,
        1.0
      ],
      "type": "VEC4"
    },
    {
      "bufferView": 1,
      "componentType": 5126,
      "count": 556,
      "max": [
        0.9896881580352783,
        0.9935518503189087
      ],
      "min": [
        0.00856010615825653,
        0.018819034099578857
      ],
      "type": "VEC2"
    },
    {
      "bufferView": 0,
      "componentType": 5125,
      "count": 2478,
      "type": "SCALAR"
    }
  ],
  "asset": {
    "extras": {
      "author": "hoxsvl (https://sketchfab.com/hoxsvl)",
      "license": "CC-BY-4.0 (http://creativecommons.org/licenses/by/4.0/)",
      "source": "https://sketchfab.com/3d-models/6-plastic-canister-lowpoly-b87cd4d8f8b348e59daef66c6f0d3a1d",
      "title": "#6 Plastic Canister | Канистра [Lowpoly]"
    },
    "generator": "Sketchfab-15.36.0",
    "version": "2.0"
  },
  "bufferViews": [
    {
      "buffer": 0,
      "byteLength": 9912,
      "name": "floatBufferViews",
      "target": 34963
    },
    {
      "buffer": 0,
      "byteLength": 4448,
      "byteOffset": 9912,
      "byteStride": 8,
      "name": "floatBufferViews",
      "target": 34962
    },
    {
      "buffer": 0,
      "byteLength": 13344,
      "byteOffset": 14360,
      "byteStride": 12,
      "name": "floatBufferViews",
      "target": 34962
    },
    {
      "buffer": 0,
      "byteLength": 8896,
      "byteOffset": 27704,
      "byteStride": 16,
      "name": "floatBufferViews",
      "target": 34962
    }
  ],
  "buffers": [
    {
      "byteLength": 36600,
      "uri": "scene.bin"
    }
  ],
  "extensionsRequired": [
    "KHR_materials_pbrSpecularGlossiness"
  ],
  "extensionsUsed": [
    "KHR_materials_pbrSpecularGlossiness"
  ],
  "images": [
    {
      "uri": "textures/kanistra-6_diffuse.png"
    },
    {
      "uri": "textures/kanistra-6_specularGlossiness.png"
    },
    {
      "uri": "textures/kanistra-6_normal.png"
    },
    {
      "uri": "textures/kanistra-6_occlusion.png"
    }
  ],
  "materials": [
    {
      "doubleSided": true,
      "extensions": {
        "KHR_materials_pbrSpecularGlossiness": {
          "diffuseFactor": [
            1.0,
            1.0,
            1.0,
            1.0
          ],
          "diffuseTexture": {
            "index": 0
          },
          "glossinessFactor": 1.0,
          "specularFactor": [
            0.05,
            0.05,
            0.05
          ],
          "specularGlossinessTexture": {
            "index": 1
          }
        }
      },
      "name": "kanistra-6",
      "normalTexture": {
        "index": 2
      },
      "occlusionTexture": {
        "index": 3
      }
    }
  ],
  "meshes": [
    {
      "name": "kanistra-6_kanistra-6_0",
      "primitives": [
        {
          "attributes": {
            "NORMAL": 1,
            "POSITION": 0,
            "TANGENT": 2,
            "TEXCOORD_0": 3
          },
          "indices": 4,
          "material": 0,
          "mode": 4
        }
      ]
    }
  ],
  "nodes": [
    {
      "children": [
        1
      ],
      "matrix": [
        1.0,
        0.0,
        0.0,
        0.0,
        0.0,
        2.220446049250313e-16,
        -1.0,
        0.0,
        0.0,
        1.0,
        2.220446049250313e-16,
        0.0,
        0.0,
        0.0,
        0.0,
        1.0
      ],
      "name": "Sketchfab_model"
    },
    {
      "children": [
        2
      ],
      "matrix": [
        0.009999999776482582,
        0.0,
        0.0,
        0.0,
        0.0,
        0.0,
        0.009999999776482582,
        0.0,
        0.0,
        -0.009999999776482582,
        0.0,
        0.0,
        0.0,
        0.0,
        0.0,
        1.0
      ],
      "name": "8203c8b602f84e0194e9e2fc4975274a.fbx"
    },
    {
      "children": [
        3
      ],
      "name": "RootNode"
    },
    {
      "children": [
        4
      ],
      "matrix": [
        100.0,
        0.0,
        0.0,
        0.0,
        0.0,
        -1.629206793918314e-05,
        -99.99999999999868,
        0.0,
        0.0,
        99.99999999999868,
        -1.629206793918314e-05,
        0.0,
        0.0,
        0.0,
        0.0,
        1.0
      ],
      "name": "kanistra-6"
    },
    {
      "mesh": 0,
      "name": "kanistra-6_kanistra-6_0"
    }
  ],
  "samplers": [
    {
      "magFilter": 9729,
      "minFilter": 9987,
      "wrapS": 10497,
      "wrapT": 10497
    }
  ],
  "scene": 0,
  "scenes": [
    {
      "name": "Sketchfab_Scene",
      "nodes": [
        0
      ]
    }
  ],
  "textures": [
    {
      "sampler": 0,
      "source": 0
    },
    {
      "sampler": 0,
      "source": 1
    },
    {
      "sampler": 0,
      "source": 2
    },
    {
      "sampler": 0,
      "source": 3
    }
  ]
}
