{
  "accessors": [
    {
      "bufferView": 2,
      "componentType": 5126,
      "count": 7404,
      "max": [
        1.0,
        0.8295519948005676,
        0.8268510103225708
      ],
      "min": [
        -1.0,
        -0.8295519948005676,
        -0.8268510103225708
      ],
      "type": "VEC3"
    },
    {
      "bufferView": 2,
      "byteOffset": 88848,
      "componentType": 5126,
      "count": 7404,
      "max": [
        0.9999376535415649,
        0.9993354678153992,
        0.9999287724494934
      ],
      "min": [
        -0.9998188614845276,
        -1.0,
        -0.9999918937683105
      ],
      "type": "VEC3"
    },
    {
      "bufferView": 3,
      "componentType": 5126,
      "count": 7404,
      "max": [
        0.9995535016059875,
        0.999836802482605,
        0.9998985528945923,
        1.0
      ],
      "min": [
        -0.9997105598449707,
        -0.997628390789032,
        -0.9989325404167175,
        -1.0
      ],
      "type": "VEC4"
    },
    {
      "bufferView": 1,
      "componentType": 5126,
      "count": 7404,
      "max": [
        0.977698028087616,
        0.9640489816665649
      ],
      "min": [
        0.058368101716041565,
        0.026115600019693375
      ],
      "type": "VEC2"
    },
    {
      "bufferView": 0,
      "componentType": 5125,
      "count": 42798,
      "type": "SCALAR"
    }
  ],
  "asset": {
    "extras": {
      "author": "Sam Constance (https://sketchfab.com/ConstanceBespoke)",
      "license": "CC-BY-4.0 (http://creativecommons.org/licenses/by/4.0/)",
      "source": "https://sketchfab.com/3d-models/trash-bag-variation-1-5f3247e1c2994b4e856fefd76898ed3e",
      "title": "Trash bag (variation 1)"
    },
    "generator": "Sketchfab-12.68.0",
    "version": "2.0"
  },
  "bufferViews": [
    {
      "buffer": 0,
      "byteLength": 171192,
      "name": "floatBufferViews",
      "target": 34963
    },
    {
      "buffer": 0,
      "byteLength": 59232,
      "byteOffset": 171192,
      "byteStride": 8,
      "name": "floatBufferViews",
      "target": 34962
    },
    {
      "buffer": 0,
      "byteLength": 177696,
      "byteOffset": 230424,
      "byteStride": 12,
      "name": "floatBufferViews",
      "target": 34962
    },
    {
      "buffer": 0,
      "byteLength": 118464,
      "byteOffset": 408120,
      "byteStride": 16,
      "name": "floatBufferViews",
      "target": 34962
    }
  ],
  "buffers": [
    {
      "byteLength": 526584,
      "uri": "scene.bin"
    }
  ],
  "images": [
    {
      "uri": "textures/Trash_bag_baseColor.jpeg"
    },
    {
      "uri": "textures/Trash_bag_metallicRoughness.png"
    },
    {
      "uri": "textures/Trash_bag_normal.png"
    }
  ],
  "materials": [
    {
      "doubleSided": true,
      "name": "Trash_bag",
      "normalTexture": {
        "index": 2
      },
      "occlusionTexture": {
        "index": 1
      },
      "pbrMetallicRoughness": {
        "baseColorTexture": {
          "index": 0
        },
        "metallicRoughnessTexture": {
          "index": 1
        },
        "roughnessFactor": 0.7168560606060607
      }
    }
  ],
  "meshes": [
    {
      "name": "defaultMaterial",
      "primitives": [
        {
          "attributes": {
            "NORMAL": 1,
            "POSITION": 0,
            "TANGENT": 2,
            "TEXCOORD_0": 3
          },
          "indices": 4,
          "material": 0,
          "mode": 4
        }
      ]
    }
  ],
  "nodes": [
    {
      "children": [
        1
      ],
      "matrix": [
        1.0,
        0.0,
        0.0,
        0.0,
        0.0,
        2.220446049250313e-16,
        -1.0,
        0.0,
        0.0,
        1.0,
        2.220446049250313e-16,
        0.0,
        0.0,
        0.0,
        0.0,
        1.0
      ],
      "name": "Sketchfab_model"
    },
    {
      "children": [
        2
      ],
      "matrix": [
        1.0,
        0.0,
        0.0,
        0.0,
        0.0,
        -4.371139006309477e-08,
        0.999999999999999,
        0.0,
        0.0,
        -0.999999999999999,
        -4.371139006309477e-08,
        0.0,
        0.0,
        0.0,
        0.0,
        1.0
      ],
      "name": "Collada visual scene group"
    },
    {
      "children": [
        3
      ],
      "name": "Trash_bag_1_hi_poly.001"
    },
    {
      "mesh": 0,
      "name": "defaultMaterial"
    }
  ],
  "samplers": [
    {
      "magFilter": 9729,
      "minFilter": 9987,
      "wrapS": 10497,
      "wrapT": 10497
    }
  ],
  "scene": 0,
  "scenes": [
    {
      "name": "Sketchfab_Scene",
      "nodes": [
        0
      ]
    }
  ],
  "textures": [
    {
      "sampler": 0,
      "source": 0
    },
    {
      "sampler": 0,
      "source": 1
    },
    {
      "sampler": 0,
      "source": 2
    }
  ]
}
