{
  "accessors": [
    {
      "bufferView": 1,
      "componentType": 5126,
      "count": 12066,
      "max": [
        3.7862699031829834,
        4.500380039215088,
        2.8314099311828613
      ],
      "min": [
        -3.7842299938201904,
        -1.1624300479888916,
        -2.8314099311828613
      ],
      "type": "VEC3"
    },
    {
      "bufferView": 1,
      "byteOffset": 144792,
      "componentType": 5126,
      "count": 12066,
      "max": [
        1.0,
        1.0,
        1.0
      ],
      "min": [
        -1.0,
        -1.0,
        -1.0
      ],
      "type": "VEC3"
    },
    {
      "bufferView": 0,
      "componentType": 5125,
      "count": 68928,
      "type": "SCALAR"
    },
    {
      "bufferView": 1,
      "byteOffset": 289584,
      "componentType": 5126,
      "count": 7488,
      "max": [
        0.9926400184631348,
        0.008200000040233135,
        0.9926400184631348
      ],
      "min": [
        -0.9926400184631348,
        -0.1698399931192398,
        -0.9926400184631348
      ],
      "type": "VEC3"
    },
    {
      "bufferView": 1,
      "byteOffset": 379440,
      "componentType": 5126,
      "count": 7488,
      "max": [
        1.0,
        1.0,
        1.0
      ],
      "min": [
        -1.0,
        -1.0,
        -1.0
      ],
      "type": "VEC3"
    },
    {
      "bufferView": 0,
      "byteOffset": 275712,
      "componentType": 5125,
      "count": 42624,
      "type": "SCALAR"
    },
    {
      "bufferView": 1,
      "byteOffset": 469296,
      "componentType": 5126,
      "count": 2129,
      "max": [
        0.912060022354126,
        -0.06493999809026718,
        0.912060022354126
      ],
      "min": [
        -0.912060022354126,
        -0.299699991941452,
        -0.912060022354126
      ],
      "type": "VEC3"
    },
    {
      "bufferView": 1,
      "byteOffset": 494844,
      "componentType": 5126,
      "count": 2129,
      "max": [
        0.3477051854133606,
        1.0,
        0.3477051854133606
      ],
      "min": [
        -0.3477051854133606,
        0.9374139308929443,
        -0.3477051854133606
      ],
      "type": "VEC3"
    },
    {
      "bufferView": 0,
      "byteOffset": 446208,
      "componentType": 5125,
      "count": 9984,
      "type": "SCALAR"
    },
    {
      "bufferView": 1,
      "byteOffset": 520392,
      "componentType": 5126,
      "count": 5154,
      "max": [
        3.7862699031829834,
        3.871150016784668,
        2.288219928741455
      ],
      "min": [
        -3.7842299938201904,
        -0.5332000255584717,
        -2.288219928741455
      ],
      "type": "VEC3"
    },
    {
      "bufferView": 1,
      "byteOffset": 582240,
      "componentType": 5126,
      "count": 5154,
      "max": [
        1.0,
        0.9905717968940735,
        1.0
      ],
      "min": [
        -1.0,
        -0.9900497198104858,
        -1.0
      ],
      "type": "VEC3"
    },
    {
      "bufferView": 0,
      "byteOffset": 486144,
      "componentType": 5125,
      "count": 25920,
      "type": "SCALAR"
    },
    {
      "bufferView": 1,
      "byteOffset": 644088,
      "componentType": 5126,
      "count": 34005,
      "max": [
        3.9424800872802734,
        4.792630195617676,
        3.123650074005127
      ],
      "min": [
        -3.9404499530792236,
        -1.4546799659729004,
        -3.123650074005127
      ],
      "type": "VEC3"
    },
    {
      "bufferView": 1,
      "byteOffset": 1052148,
      "componentType": 5126,
      "count": 34005,
      "max": [
        1.0,
        1.0,
        1.0
      ],
      "min": [
        -1.0,
        -1.0,
        -1.0
      ],
      "type": "VEC3"
    },
    {
      "bufferView": 0,
      "byteOffset": 589824,
      "componentType": 5125,
      "count": 195936,
      "type": "SCALAR"
    },
    {
      "bufferView": 1,
      "byteOffset": 1460208,
      "componentType": 5126,
      "count": 1040,
      "max": [
        0.9300400018692017,
        -0.014399999752640724,
        0.9300400018692017
      ],
      "min": [
        -0.9300400018692017,
        -0.188060000538826,
        -0.9300400018692017
      ],
      "type": "VEC3"
    },
    {
      "bufferView": 1,
      "byteOffset": 1472688,
      "componentType": 5126,
      "count": 1040,
      "max": [
        0.346722811460495,
        0.9421517848968506,
        0.346722811460495
      ],
      "min": [
        -0.346722811460495,
        0.9379638433456421,
        -0.346722811460495
      ],
      "type": "VEC3"
    },
    {
      "bufferView": 0,
      "byteOffset": 1373568,
      "componentType": 5125,
      "count": 4608,
      "type": "SCALAR"
    },
    {
      "bufferView": 1,
      "byteOffset": 1485168,
      "componentType": 5126,
      "count": 6624,
      "max": [
        2.319509983062744,
        0.5221499800682068,
        2.319509983062744
      ],
      "min": [
        -2.319509983062744,
        -0.10537000000476837,
        -2.319509983062744
      ],
      "type": "VEC3"
    },
    {
      "bufferView": 1,
      "byteOffset": 1564656,
      "componentType": 5126,
      "count": 6624,
      "max": [
        1.0,
        0.9999997019767761,
        1.0
      ],
      "min": [
        -1.0,
        -0.9995843172073364,
        -1.0
      ],
      "type": "VEC3"
    },
    {
      "bufferView": 0,
      "byteOffset": 1392000,
      "componentType": 5125,
      "count": 39936,
      "type": "SCALAR"
    },
    {
      "bufferView": 1,
      "byteOffset": 1644144,
      "componentType": 5126,
      "count": 986,
      "max": [
        3.098900079727173,
        3.9571900367736816,
        0.48548001050949097
      ],
      "min": [
        -3.096869945526123,
        -0.6192399859428406,
        -0.48548001050949097
      ],
      "type": "VEC3"
    },
    {
      "bufferView": 1,
      "byteOffset": 1655976,
      "componentType": 5126,
      "count": 986,
      "max": [
        1.0,
        0.7611235976219177,
        1.0
      ],
      "min": [
        -1.0,
        -0.7611235976219177,
        -1.0
      ],
      "type": "VEC3"
    },
    {
      "bufferView": 0,
      "byteOffset": 1551744,
      "componentType": 5125,
      "count": 5376,
      "type": "SCALAR"
    }
  ],
  "asset": {
    "extras": {
      "author": "Víctor Hernández (https://sketchfab.com/victorhugohc)",
      "license": "CC-BY-4.0 (http://creativecommons.org/licenses/by/4.0/)",
      "source": "https://sketchfab.com/3d-models/sphere-eye-cd792858ae194efe9c10ef19b08c3907",
      "title": "Sphere - Eye?"
    },
    "generator": "Sketchfab-12.67.0",
    "version": "2.0"
  },
  "bufferViews": [
    {
      "buffer": 0,
      "byteLength": 1573248,
      "name": "floatBufferViews",
      "target": 34963
    },
    {
      "buffer": 0,
      "byteLength": 1667808,
      "byteOffset": 1573248,
      "byteStride": 12,
      "name": "floatBufferViews",
      "target": 34962
    }
  ],
  "buffers": [
    {
      "byteLength": 3241056,
      "uri": "scene.bin"
    }
  ],
  "extensionsRequired": [
    "KHR_materials_pbrSpecularGlossiness"
  ],
  "extensionsUsed": [
    "KHR_materials_pbrSpecularGlossiness"
  ],
  "materials": [
    {
      "doubleSided": true,
      "extensions": {
        "KHR_materials_pbrSpecularGlossiness": {
          "diffuseFactor": [
            0.0,
            0.0,
            0.0,
            1.0
          ],
          "glossinessFactor": 1.0,
          "specularFactor": [
            0.22645000792844383,
            0.22645000792844383,
            0.22645000792844383
          ]
        }
      },
      "name": "Material.001"
    },
    {
      "doubleSided": true,
      "emissiveFactor": [
        0.0,
        0.0176393196,
        0.08000000715
      ],
      "extensions": {
        "KHR_materials_pbrSpecularGlossiness": {
          "diffuseFactor": [
            0.0166452784,
            0.0345882843,
            0.5884928166,
            1.0
          ],
          "glossinessFactor": 0.4,
          "specularFactor": [
            1.0,
            1.0,
            1.0
          ]
        }
      },
      "name": "Material.002"
    },
    {
      "doubleSided": true,
      "emissiveFactor": [
        0.024380023780000003,
        0.08000000715,
        0.07546463013
      ],
      "extensions": {
        "KHR_materials_pbrSpecularGlossiness": {
          "diffuseFactor": [
            0.0051531323,
            0.0086370097,
            0.3350049676,
            1.0
          ],
          "glossinessFactor": 0.4,
          "specularFactor": [
            1.0,
            1.0,
            1.0
          ]
        }
      },
      "name": "Material.003"
    },
    {
      "doubleSided": true,
      "emissiveFactor": [
        0.1,
        0.1,
        0.1
      ],
      "extensions": {
        "KHR_materials_pbrSpecularGlossiness": {
          "diffuseFactor": [
            0.0007557183,
            0.0163289834,
            0.1636959293,
            1.0
          ],
          "glossinessFactor": 0.4,
          "specularFactor": [
            1.0,
            1.0,
            1.0
          ]
        }
      },
      "name": "Material.004"
    },
    {
      "doubleSided": true,
      "extensions": {
        "KHR_materials_pbrSpecularGlossiness": {
          "diffuseFactor": [
            1.0,
            1.0,
            1.0,
            1.0
          ],
          "glossinessFactor": 1.0,
          "specularFactor": [
            0.17145000711031883,
            0.17145000711031883,
            0.17145000711031883
          ]
        }
      },
      "name": "Material.005"
    },
    {
      "doubleSided": true,
      "emissiveFactor": [
        0.00098948618,
        0.0011643814900000001,
        0.017885975539999998
      ],
      "extensions": {
        "KHR_materials_pbrSpecularGlossiness": {
          "diffuseFactor": [
            0.0003178351,
            0.5425632699,
            0.8440706382,
            1.0
          ],
          "glossinessFactor": 0.4,
          "specularFactor": [
            1.0,
            1.0,
            1.0
          ]
        }
      },
      "name": "Material.007"
    },
    {
      "doubleSided": true,
      "extensions": {
        "KHR_materials_pbrSpecularGlossiness": {
          "diffuseFactor": [
            0.0513022435,
            0.0513022435,
            0.0513022435,
            1.0
          ],
          "glossinessFactor": 1.0,
          "specularFactor": [
            0.3214500093415688,
            0.3214500093415688,
            0.3214500093415688
          ]
        }
      },
      "name": "Material.008"
    },
    {
      "doubleSided": true,
      "emissiveFactor": [
        0.06557584405,
        0.07538993359000001,
        0.08000000715
      ],
      "extensions": {
        "KHR_materials_pbrSpecularGlossiness": {
          "diffuseFactor": [
            1.0,
            1.0,
            1.0,
            1.0
          ],
          "glossinessFactor": 0.4,
          "specularFactor": [
            1.0,
            1.0,
            1.0
          ]
        }
      },
      "name": "Material.009"
    }
  ],
  "meshes": [
    {
      "name": "Eye_0",
      "primitives": [
        {
          "attributes": {
            "NORMAL": 1,
            "POSITION": 0
          },
          "indices": 2,
          "material": 0,
          "mode": 4
        }
      ]
    },
    {
      "name": "Eye_1",
      "primitives": [
        {
          "attributes": {
            "NORMAL": 4,
            "POSITION": 3
          },
          "indices": 5,
          "material": 1,
          "mode": 4
        }
      ]
    },
    {
      "name": "Eye_2",
      "primitives": [
        {
          "attributes": {
            "NORMAL": 7,
            "POSITION": 6
          },
          "indices": 8,
          "material": 2,
          "mode": 4
        }
      ]
    },
    {
      "name": "Eye_3",
      "primitives": [
        {
          "attributes": {
            "NORMAL": 10,
            "POSITION": 9
          },
          "indices": 11,
          "material": 3,
          "mode": 4
        }
      ]
    },
    {
      "name": "Eye_4",
      "primitives": [
        {
          "attributes": {
            "NORMAL": 13,
            "POSITION": 12
          },
          "indices": 14,
          "material": 4,
          "mode": 4
        }
      ]
    },
    {
      "name": "Eye_5",
      "primitives": [
        {
          "attributes": {
            "NORMAL": 16,
            "POSITION": 15
          },
          "indices": 17,
          "material": 5,
          "mode": 4
        }
      ]
    },
    {
      "name": "Eye_6",
      "primitives": [
        {
          "attributes": {
            "NORMAL": 19,
            "POSITION": 18
          },
          "indices": 20,
          "material": 6,
          "mode": 4
        }
      ]
    },
    {
      "name": "Eye_7",
      "primitives": [
        {
          "attributes": {
            "NORMAL": 22,
            "POSITION": 21
          },
          "indices": 23,
          "material": 7,
          "mode": 4
        }
      ]
    }
  ],
  "nodes": [
    {
      "children": [
        1
      ],
      "matrix": [
        1.0,
        0.0,
        0.0,
        0.0,
        0.0,
        2.220446049250313e-16,
        -1.0,
        0.0,
        0.0,
        1.0,
        2.220446049250313e-16,
        0.0,
        0.0,
        0.0,
        0.0,
        1.0
      ],
      "name": "Sketchfab_model"
    },
    {
      "children": [
        2,
        4
      ],
      "name": "Root"
    },
    {
      "children": [
        3
      ],
      "name": "Lamp"
    },
    {
      "name": "Lamp"
    },
    {
      "children": [
        5,
        6,
        7,
        8,
        9,
        10,
        11,
        12
      ],
      "matrix": [
        1.0,
        0.0,
        0.0,
        0.0,
        0.0,
        1.0,
        0.0,
        0.0,
        0.0,
        0.0,
        1.0,
        0.0,
        0.0,
        0.0,
        1.08807,
        1.0
      ],
      "name": "Eye"
    },
    {
      "mesh": 0,
      "name": "Eye_0"
    },
    {
      "mesh": 1,
      "name": "Eye_1"
    },
    {
      "mesh": 2,
      "name": "Eye_2"
    },
    {
      "mesh": 3,
      "name": "Eye_3"
    },
    {
      "mesh": 4,
      "name": "Eye_4"
    },
    {
      "mesh": 5,
      "name": "Eye_5"
    },
    {
      "mesh": 6,
      "name": "Eye_6"
    },
    {
      "mesh": 7,
      "name": "Eye_7"
    }
  ],
  "scene": 0,
  "scenes": [
    {
      "name": "Sketchfab_Scene",
      "nodes": [
        0
      ]
    }
  ]
}
